<svg width="1200" height="760" viewBox="0 0 1200 760" fill="none" xmlns="http://www.w3.org/2000/svg">
  <rect width="1200" height="760" fill="#F3E2C5"/>
  <path d="M0 250C194 156 410 140 612 176C760 202 902 264 1046 242C1100 234 1150 216 1200 190V0H0V250Z" fill="#F0A52F"/>
  <path d="M0 320C160 268 326 260 500 286C680 312 852 382 1040 356C1096 348 1148 334 1200 308V214C1146 240 1096 256 1042 262C856 286 684 216 504 188C328 160 162 172 0 236V320Z" fill="#F8C96A"/>

  <rect y="332" width="1200" height="428" fill="#78B451"/>
  <rect y="470" width="1200" height="290" fill="#679E43"/>

  <rect x="80" y="508" width="1040" height="170" rx="24" fill="#7A4A2A"/>
  <rect x="120" y="540" width="320" height="40" rx="12" fill="#CFA66B"/>
  <rect x="470" y="540" width="320" height="40" rx="12" fill="#CFA66B"/>
  <rect x="820" y="540" width="260" height="40" rx="12" fill="#CFA66B"/>

  <g>
    <ellipse cx="270" cy="605" rx="22" ry="16" fill="#D5B27E"/>
    <ellipse cx="300" cy="605" rx="22" ry="16" fill="#D5B27E"/>
    <ellipse cx="330" cy="605" rx="22" ry="16" fill="#D5B27E"/>
    <path d="M236 592L320 552L398 592L322 618L236 592Z" fill="#B27A46"/>
    <text x="258" y="607" fill="#3F230E" font-family="Arial, sans-serif" font-size="17" font-weight="700">SACK</text>
  </g>

  <g>
    <ellipse cx="620" cy="604" rx="22" ry="16" fill="#D5B27E"/>
    <ellipse cx="650" cy="604" rx="22" ry="16" fill="#D5B27E"/>
    <ellipse cx="680" cy="604" rx="22" ry="16" fill="#D5B27E"/>
    <path d="M586 592L670 552L748 592L672 618L586 592Z" fill="#B27A46"/>
    <text x="608" y="607" fill="#3F230E" font-family="Arial, sans-serif" font-size="17" font-weight="700">SACK</text>
  </g>

  <g>
    <ellipse cx="910" cy="604" rx="22" ry="16" fill="#D5B27E"/>
    <ellipse cx="940" cy="604" rx="22" ry="16" fill="#D5B27E"/>
    <path d="M880 592L950 560L1016 592L954 616L880 592Z" fill="#B27A46"/>
    <text x="900" y="607" fill="#3F230E" font-family="Arial, sans-serif" font-size="17" font-weight="700">SACK</text>
  </g>

  <ellipse cx="1060" cy="370" rx="42" ry="26" fill="#FFFFFF"/>
  <circle cx="1092" cy="360" r="12" fill="#FFFFFF"/>
  <polygon points="1106,360 1122,356 1106,368" fill="#E29E2E"/>
  <circle cx="1096" cy="357" r="2.5" fill="#2F1A09"/>

  <text x="68" y="86" fill="#4D280D" font-family="Arial, sans-serif" font-size="38" font-weight="700">Cambodia Market and Farm Supply</text>
</svg>
